<?xml version="1.0" encoding="utf-8"?>
<!-- Generator: Adobe Illustrator 26.0.2, SVG Export Plug-In . SVG Version: 6.00 Build 0)  -->
<svg version="1.1" id="Layer_1" xmlns="http://www.w3.org/2000/svg" xmlns:xlink="http://www.w3.org/1999/xlink" x="0px" y="0px"
	 viewBox="0 0 360 360" style="enable-background:new 0 0 360 360;" xml:space="preserve">
<style type="text/css">
	.st0{fill:#FFFFFF;stroke:#000000;stroke-width:1.8767;stroke-miterlimit:10;}
	.st1{fill:none;stroke:#000000;stroke-width:4.2944;stroke-miterlimit:10;}
	.st2{fill:none;stroke:#000000;stroke-width:3.7535;stroke-miterlimit:10;}
	.st3{fill:#393B1A;stroke:#000000;stroke-width:3.1065;stroke-miterlimit:10;}
	.st4{fill:none;stroke:#000000;stroke-width:4.6598;stroke-miterlimit:10;}
	.st5{fill:none;stroke:#000000;stroke-width:3.1065;stroke-miterlimit:10;}
	.st6{fill:#9D9B6C;stroke:#000000;stroke-width:3.1065;stroke-miterlimit:10;}
	.st7{fill:none;stroke:#000000;stroke-width:1.5533;stroke-miterlimit:10;}
	.st8{fill:#9D9B6C;stroke:#000000;stroke-width:1.5533;stroke-miterlimit:10;}
</style>
<g>
	<g>
		<path class="st0" d="M145.6,83.2"/>
		<path class="st1" d="M178.9,102l-75.6,46.1c-1.9,1.1-1.1,4,1.1,4h151.3c2.2,0,3-2.9,1.1-4L181.1,102
			C180.4,101.5,179.6,101.5,178.9,102z"/>
		<path d="M179.9,69.1c-5.4,0-9.9,4.4-10.9,10.2h3c0.9-4,4.1-6.9,7.9-6.9c4.5,0,8.2,4.2,8.2,9.3s-3.7,9.3-8.2,9.3v3.3
			c6.2,0,11.1-5.7,11.1-12.6S186,69.1,179.9,69.1z"/>
		<line class="st2" x1="180" y1="91" x2="180" y2="102"/>
	</g>
	<g>
		<path class="st3" d="M208.9,290.9h-57.3c-3.2,0-5.8-2.6-5.8-5.8v-72.4c0-3.2,2.6-5.8,5.8-5.8h57.3c3.2,0,5.8,2.6,5.8,5.8v72.4
			C214.7,288.3,212.1,290.9,208.9,290.9z"/>
		<path class="st3" d="M201.3,207h-42c-0.4,0-0.7-0.3-0.7-0.7v-10.5c0-0.4,0.3-0.7,0.7-0.7h42c0.4,0,0.7,0.3,0.7,0.7v10.5
			C202,206.7,201.7,207,201.3,207z"/>
	</g>
	<line class="st4" x1="180" y1="195.1" x2="180" y2="150.8"/>
	<path class="st5" d="M179.7,176.4"/>
	<g>
		<path class="st6" d="M180.3,175.2c0,0-0.5-15.8,21.4-10.4C201.7,164.8,204.2,181,180.3,175.2z"/>
		<line class="st7" x1="180.3" y1="175.2" x2="201.7" y2="164.8"/>
	</g>
	<g>
		<path class="st6" d="M179.7,180c0,0,0.5-15.8-21.4-10.4C158.3,169.7,155.8,185.9,179.7,180z"/>
		<line class="st8" x1="179.7" y1="180" x2="158.3" y2="169.7"/>
	</g>
</g>
</svg>
